<?xml version="1.0" encoding="utf-8"?>
<!-- Generator: Adobe Illustrator 26.0.1, SVG Export Plug-In . SVG Version: 6.00 Build 0)  -->
<!DOCTYPE svg PUBLIC "-//W3C//DTD SVG 1.1//EN" "http://www.w3.org/Graphics/SVG/1.1/DTD/svg11.dtd" [
	<!ENTITY ns_extend "http://ns.adobe.com/Extensibility/1.0/">
	<!ENTITY ns_ai "http://ns.adobe.com/AdobeIllustrator/10.0/">
	<!ENTITY ns_graphs "http://ns.adobe.com/Graphs/1.0/">
	<!ENTITY ns_vars "http://ns.adobe.com/Variables/1.0/">
	<!ENTITY ns_imrep "http://ns.adobe.com/ImageReplacement/1.0/">
	<!ENTITY ns_sfw "http://ns.adobe.com/SaveForWeb/1.0/">
	<!ENTITY ns_custom "http://ns.adobe.com/GenericCustomNamespace/1.0/">
	<!ENTITY ns_adobe_xpath "http://ns.adobe.com/XPath/1.0/">
]>
<svg version="1.1" id="Слой_1" xmlns:x="&ns_extend;" xmlns:i="&ns_ai;" xmlns:graph="&ns_graphs;"
	 xmlns="http://www.w3.org/2000/svg" xmlns:xlink="http://www.w3.org/1999/xlink" x="0px" y="0px" viewBox="0 0 55.6 47.7"
	 enable-background="new 0 0 55.6 47.7" xml:space="preserve">
<metadata>
	<sfw  xmlns="&ns_sfw;">
		<slices></slices>
		<sliceSourceBounds  bottomLeftOrigin="true" height="47.7" width="55.6" x="0" y="0"></sliceSourceBounds>
	</sfw>
</metadata>
<g>
	<defs>
		<rect id="SVGID_1_" y="0" width="55.6" height="47.7"/>
	</defs>
	<clipPath id="SVGID_00000180362397395885060840000001581625627132725171_">
		<use xlink:href="#SVGID_1_"  overflow="visible"/>
	</clipPath>
	<path clip-path="url(#SVGID_00000180362397395885060840000001581625627132725171_)" d="M55,15.5c0,0-2.9-8.2-11.8-3.4L43,6.8
		c0,0-1-7.9-24.5-6.7c0,0-18.7,0.7-18.5,10.1l0.9,15l1.3,15.4c0,0,3.1,6.5,19,7C37,48.1,41.3,40,41.3,40l0.2-5.7l0,0l0-0.3
		c0,0,11.8-2.4,13.7-10.2C56.1,21.1,55.5,16.9,55,15.5 M49.4,21.7c-0.8,4.3-6.3,5.5-6.3,5.5l0.1-8.6C46.8,16.5,50.5,15.8,49.4,21.7"
		/>
	<path clip-path="url(#SVGID_00000180362397395885060840000001581625627132725171_)" fill="#DFCAA5" d="M51.8,13.6
		c-3.9-3.5-10.6,1.9-10.6,1.9l-0.5-6.7c0.2-1.7-2.8-7-19.7-7.2c-17.7-0.3-19,8.2-19,8.2c0.6,1.4,1.9,30.5,1.9,30.5
		c4,5.3,14,5.5,21.6,5.3c8.2-0.2,13.7-6.5,13.7-6.5l0.2-6.7l1.7-0.2C54.5,30.8,55.8,17.1,51.8,13.6 M20.9,12.1C5,13,4.8,9.2,4.8,9.2
		c1.8-3.6,7.4-5.3,16.8-6C31,2.5,38,6.8,37.9,7.3C37.8,7.9,36.8,11.2,20.9,12.1 M51.1,22.2c-1,5.9-10.1,7.4-10.1,7.4l0.2-12
		C49,12.8,52.2,16.3,51.1,22.2"/>
	<path clip-path="url(#SVGID_00000180362397395885060840000001581625627132725171_)" fill="#FCF2E1" d="M40.8,30.8
		c0,0,6.8,0.5,12.3-7.6c1.3-3.9,0.6-7.9-1.3-9.6c-3.9-3.5-10.6,1.9-10.6,1.9l-0.5-6.7c0.2-1.7-2.8-7-19.7-7.2
		c-17.7-0.3-19,8.2-19,8.2c0.6,1.3,1.9,30.5,1.9,30.5c4,5.3,14,5.5,21.6,5.3c8.2-0.2,13.7-6.5,13.7-6.5l0.2-6.7l0.5-0.1
		C40.2,31.8,40.4,31.3,40.8,30.8 M41.3,17.6c0.1-0.1,0.2-0.1,0.3-0.2c0.1-0.5,0.4-1.2,0.9-1.5c0.7-0.5,6.1-3.1,7.4-2.2
		c1.3,0.9,4.9,7.7,0.6,10.1c-2.3,4.5-9.5,5.7-9.5,5.7L41.3,17.6z M4.8,9.2c1.8-3.6,7.4-5.3,16.8-6C31,2.5,38,6.8,37.9,7.3
		c-0.1,0.6-1.1,3.9-17,4.8C5,13,4.8,9.2,4.8,9.2 M38.9,32v5.8c-4.7,7.1-17.3,7-17.3,7s4.3-8.4,3.4-14.2c-1-5.8-2.4-16.3-2.4-16.3
		c16.6,0.2,17.3-6.5,17.3-6.5s0.1-0.4,0.7,3.8C41.2,15.8,38.9,32,38.9,32"/>
	
		<path clip-path="url(#SVGID_00000180362397395885060840000001581625627132725171_)" fill-rule="evenodd" clip-rule="evenodd" fill="#FFFFFF" d="
		M9.4,13.6c-4.4-0.5-5.3-1.9-5.3-1.9c0.2,2.7,1.7,28.8,1.7,28.8s0.7-4.7,2.9-12C10.8,21.1,9.4,13.6,9.4,13.6"/>
	
		<path clip-path="url(#SVGID_00000180362397395885060840000001581625627132725171_)" fill-rule="evenodd" clip-rule="evenodd" fill="#63320F" d="
		M6.7,9.7c12.6,2.7,27.4-1,27.4-1C19.6,6.8,6.7,9.7,6.7,9.7"/>
	<path clip-path="url(#SVGID_00000180362397395885060840000001581625627132725171_)" fill="#FEECC2" d="M34.1,14.5
		c0.8,2.8,0.5,25.4,0.5,25.4l2.6-1.7c0.1-2.3,1.7-26.9,1.7-26.9C37.6,13.7,34.1,14.5,34.1,14.5"/>
</g>
</svg>
